# xmcd
#
# Track frame offsets: 
#        150
#        12145
#        27828
#        42597
#        53115
#        63488
#        73921
#        84030
#
# Disc length: 1237 seconds
#
# Revision: 0
# Processed by: cddbd v1.5.2PL0 Copyright (c) Steve Scherf et al.
# Submitted via: ExactAudioCopy v0.95b3
#
DISCID=6204d308
DTITLE=Don Gibson - Oh Lonesome Me
DYEAR=2006
DGENRE=Country
TTITLE0=Oh Lonesome Me
TTITLE1=Sweet Dreams
TTITLE2=I Can't Stop Loving You
TTITLE3=Far Far Away
TTITLE4=Look Who's Blue
TTITLE5=Just One Time
TTITLE6=Who Cares For Me
TTITLE7=Blue Blue Day
EXTD=
EXTT0=
EXTT1=
EXTT2=
EXTT3=
EXTT4=
EXTT5=
EXTT6=
EXTT7=
PLAYORDER=
